<!DOCTYPE svg PUBLIC "-//W3C//DTD SVG 1.1//EN" "http://www.w3.org/Graphics/SVG/1.1/DTD/svg11.dtd">
<!-- Uploaded to: SVG Repo, www.svgrepo.com, Transformed by: SVG Repo Mixer Tools -->
<svg version="1.1" id="BRIEFCASE" xmlns="http://www.w3.org/2000/svg" xmlns:xlink="http://www.w3.org/1999/xlink" width="256px" height="256px" viewBox="0 0 1800 1800" enable-background="new 0 0 1800 1800" xml:space="preserve" fill="#000000" stroke="#000000" stroke-width="23.4">
<g id="SVGRepo_bgCarrier" stroke-width="0"/>
<g id="SVGRepo_tracerCarrier" stroke-linecap="round" stroke-linejoin="round"/>
<g id="SVGRepo_iconCarrier"> <path fill="#333333" d="M1709.277,268.688h-515.642c1.962-7.174,3.1-14.691,3.1-22.48v-74.93c0-47.103-38.321-85.424-85.424-85.424 H688.688c-47.103,0-85.423,38.321-85.423,85.424v74.93c0,7.789,1.137,15.306,3.1,22.48H90.723 c-47.103,0-85.424,38.321-85.424,85.424v659.412c0,47.103,38.321,85.424,85.424,85.424h43.563c-1.962,7.179-3.1,14.691-3.1,22.48 v507.295c0,47.103,38.321,85.424,85.424,85.424H1583.39c47.103,0,85.424-38.321,85.424-85.424v-507.295 c0-7.789-1.137-15.302-3.1-22.48h43.563c47.103,0,85.424-38.321,85.424-85.424V354.111 C1794.701,307.009,1756.38,268.688,1709.277,268.688z M1433.147,1036.004v62.943v54.413c0,12.395-10.085,22.479-22.479,22.479 h-47.959c-12.395,0-22.48-10.085-22.48-22.479v-54.413v-62.943v-92.919c0-12.395,10.086-22.479,22.48-22.479h47.959 c12.395,0,22.479,10.085,22.479,22.479V1036.004z M666.209,246.208v-74.93c0-12.395,10.085-22.48,22.479-22.48h422.623 c12.395,0,22.479,10.085,22.479,22.48v74.93c0,12.395-10.085,22.48-22.479,22.48H688.688 C676.294,268.688,666.209,258.602,666.209,246.208z M688.688,331.631h422.623h243.902v526.408 c-43.599,3.815-77.929,40.473-77.929,85.046v92.919H522.71v-92.919c0-44.573-34.33-81.23-77.933-85.046V331.631H688.688z M459.767,1098.947v54.413c0,12.395-10.085,22.479-22.479,22.479h-47.959c-12.395,0-22.48-10.085-22.48-22.479v-54.413v-62.943 v-92.919c0-12.395,10.085-22.479,22.48-22.479h47.959c12.395,0,22.479,10.085,22.479,22.479v92.919V1098.947z M90.723,1036.004 c-12.395,0-22.479-10.086-22.479-22.48V354.111c0-12.395,10.085-22.48,22.479-22.48h291.111v526.408 c-43.599,3.815-77.929,40.473-77.929,85.046v92.919H216.61H90.723z M1605.87,1121.428v507.295c0,12.395-10.086,22.48-22.48,22.48 H216.61c-12.395,0-22.48-10.086-22.48-22.48v-507.295c0-12.396,10.085-22.48,22.48-22.48h87.294v54.413 c0,47.103,38.321,85.424,85.424,85.424h47.959c47.102,0,85.423-38.321,85.423-85.424v-54.413h754.575v54.413 c0,47.103,38.321,85.424,85.424,85.424h47.959c47.103,0,85.423-38.321,85.423-85.424v-54.413h87.299 C1595.784,1098.947,1605.87,1109.032,1605.87,1121.428z M1731.757,1013.523c0,12.395-10.085,22.48-22.479,22.48H1583.39h-87.299 v-92.919c0-44.573-34.33-81.23-77.933-85.046V331.631h291.119c12.395,0,22.479,10.085,22.479,22.48V1013.523z"/> </g>
</svg>