<?xml version="1.0" encoding="UTF-8"?>
<svg xmlns="http://www.w3.org/2000/svg" xmlns:xlink="http://www.w3.org/1999/xlink" width="70px" height="70px" viewBox="0 0 70 70" version="1.1">
<g id="surface1">
<path style=" stroke:none;fill-rule:nonzero;fill:rgb(0%,0%,0%);fill-opacity:1;" d="M 5.675781 0.9375 C 5.78125 0.9375 5.882812 0.9375 5.988281 0.9375 C 6.335938 0.9375 6.679688 0.9375 7.023438 0.9375 C 7.277344 0.9375 7.527344 0.9375 7.777344 0.9375 C 8.460938 0.9375 9.152344 0.9375 9.839844 0.9375 C 10.582031 0.9375 11.324219 0.9375 12.066406 0.933594 C 13.683594 0.933594 15.308594 0.929688 16.933594 0.929688 C 17.945312 0.929688 18.957031 0.929688 19.96875 0.925781 C 22.769531 0.925781 25.574219 0.921875 28.375 0.921875 C 28.558594 0.921875 28.734375 0.921875 28.921875 0.921875 C 29.101562 0.921875 29.28125 0.921875 29.464844 0.921875 C 29.832031 0.921875 30.195312 0.921875 30.558594 0.921875 C 30.648438 0.921875 30.742188 0.921875 30.832031 0.921875 C 33.671875 0.921875 36.511719 0.921875 39.351562 0.917969 C 42.539062 0.914062 45.730469 0.914062 48.921875 0.914062 C 50.605469 0.914062 52.296875 0.914062 53.984375 0.910156 C 55.421875 0.910156 56.859375 0.910156 58.300781 0.910156 C 59.03125 0.910156 59.765625 0.910156 60.5 0.90625 C 61.175781 0.90625 61.84375 0.90625 62.515625 0.90625 C 62.761719 0.910156 63.003906 0.90625 63.246094 0.90625 C 64.9375 0.894531 66.488281 0.914062 67.789062 2.148438 C 68.941406 3.363281 68.96875 4.640625 68.957031 6.257812 C 68.960938 6.464844 68.960938 6.667969 68.960938 6.875 C 68.964844 7.433594 68.964844 7.996094 68.960938 8.554688 C 68.960938 9.160156 68.964844 9.765625 68.964844 10.371094 C 68.96875 11.554688 68.96875 12.738281 68.96875 13.925781 C 68.96875 14.886719 68.96875 15.847656 68.96875 16.808594 C 68.96875 16.949219 68.96875 17.085938 68.96875 17.226562 C 68.96875 17.507812 68.96875 17.785156 68.96875 18.0625 C 68.96875 20.675781 68.96875 23.285156 68.96875 25.902344 C 68.96875 28.289062 68.96875 30.671875 68.972656 33.066406 C 68.976562 35.515625 68.976562 37.96875 68.976562 40.425781 C 68.976562 41.800781 68.976562 43.179688 68.976562 44.554688 C 68.976562 45.726562 68.976562 46.902344 68.976562 48.070312 C 68.976562 48.667969 68.976562 49.265625 68.976562 49.863281 C 68.980469 50.410156 68.976562 50.960938 68.976562 51.507812 C 68.976562 51.703125 68.976562 51.90625 68.976562 52.101562 C 68.988281 53.644531 68.8125 55.066406 67.695312 56.222656 C 66.472656 57.234375 65.242188 57.402344 63.703125 57.378906 C 63.507812 57.378906 63.304688 57.378906 63.101562 57.378906 C 62.5625 57.378906 62.023438 57.375 61.484375 57.367188 C 60.914062 57.363281 60.347656 57.359375 59.78125 57.359375 C 58.714844 57.359375 57.640625 57.351562 56.570312 57.347656 C 55.121094 57.332031 53.671875 57.328125 52.226562 57.324219 C 49.945312 57.316406 47.667969 57.296875 45.390625 57.285156 C 45.390625 60.394531 45.390625 63.511719 45.390625 66.71875 C 46.699219 66.71875 48.007812 66.71875 49.355469 66.71875 C 50.039062 67.265625 50.039062 67.265625 50.175781 67.667969 C 50.175781 68.167969 50.074219 68.378906 49.765625 68.769531 C 49.242188 69.117188 48.824219 69.082031 48.222656 69.078125 C 48.105469 69.078125 47.984375 69.078125 47.867188 69.082031 C 47.472656 69.082031 47.078125 69.082031 46.683594 69.082031 C 46.402344 69.082031 46.121094 69.082031 45.839844 69.085938 C 45.074219 69.085938 44.304688 69.085938 43.539062 69.085938 C 42.898438 69.085938 42.261719 69.085938 41.621094 69.085938 C 40.113281 69.085938 38.601562 69.085938 37.09375 69.085938 C 35.539062 69.085938 33.980469 69.085938 32.421875 69.089844 C 31.085938 69.089844 29.753906 69.089844 28.417969 69.089844 C 27.617188 69.089844 26.816406 69.089844 26.019531 69.09375 C 25.273438 69.097656 24.519531 69.09375 23.769531 69.09375 C 23.496094 69.09375 23.21875 69.09375 22.941406 69.09375 C 22.566406 69.097656 22.191406 69.09375 21.8125 69.09375 C 21.703125 69.09375 21.59375 69.09375 21.480469 69.097656 C 20.859375 69.089844 20.453125 69.023438 19.960938 68.632812 C 19.746094 68.199219 19.769531 67.738281 19.824219 67.265625 C 20.074219 66.898438 20.21875 66.863281 20.644531 66.71875 C 21.910156 66.71875 23.171875 66.71875 24.472656 66.71875 C 24.472656 63.605469 24.472656 60.492188 24.472656 57.285156 C 22.289062 57.292969 22.289062 57.292969 20.058594 57.304688 C 19.136719 57.304688 18.214844 57.308594 17.292969 57.3125 C 15.824219 57.316406 14.363281 57.320312 12.898438 57.328125 C 11.832031 57.332031 10.765625 57.332031 9.699219 57.335938 C 9.132812 57.335938 8.570312 57.339844 8.003906 57.34375 C 7.472656 57.347656 6.9375 57.347656 6.410156 57.347656 C 6.214844 57.347656 6.019531 57.347656 5.824219 57.351562 C 4.277344 57.367188 3.171875 57.128906 2.023438 56.0625 C 1.214844 55.132812 0.941406 54.089844 0.9375 52.882812 C 0.9375 52.710938 0.9375 52.539062 0.9375 52.363281 C 0.9375 52.175781 0.9375 51.984375 0.9375 51.796875 C 0.9375 51.589844 0.9375 51.390625 0.9375 51.1875 C 0.9375 50.632812 0.9375 50.078125 0.9375 49.523438 C 0.9375 48.925781 0.9375 48.324219 0.933594 47.726562 C 0.933594 46.414062 0.929688 45.105469 0.929688 43.792969 C 0.929688 42.976562 0.929688 42.15625 0.925781 41.339844 C 0.925781 39.078125 0.921875 36.8125 0.921875 34.546875 C 0.921875 34.402344 0.921875 34.253906 0.921875 34.109375 C 0.921875 33.960938 0.921875 33.816406 0.921875 33.667969 C 0.921875 33.375 0.921875 33.078125 0.921875 32.785156 C 0.921875 32.636719 0.921875 32.492188 0.921875 32.339844 C 0.921875 29.976562 0.921875 27.609375 0.917969 25.246094 C 0.914062 22.8125 0.914062 20.386719 0.914062 17.953125 C 0.914062 16.589844 0.914062 15.222656 0.910156 13.859375 C 0.910156 12.703125 0.910156 11.539062 0.910156 10.375 C 0.910156 9.78125 0.910156 9.195312 0.90625 8.597656 C 0.90625 8.058594 0.90625 7.511719 0.90625 6.972656 C 0.910156 6.773438 0.90625 6.578125 0.90625 6.382812 C 0.894531 4.8125 1.003906 3.382812 2.15625 2.210938 C 3.21875 1.226562 4.238281 0.9375 5.675781 0.9375 Z M 3.511719 4.039062 C 3.167969 4.535156 3.128906 4.902344 3.128906 5.488281 C 3.128906 5.636719 3.128906 5.78125 3.128906 5.933594 C 3.128906 6.09375 3.128906 6.253906 3.128906 6.421875 C 3.128906 6.59375 3.128906 6.765625 3.128906 6.9375 C 3.128906 7.417969 3.128906 7.890625 3.128906 8.367188 C 3.128906 8.890625 3.128906 9.410156 3.128906 9.929688 C 3.128906 10.941406 3.132812 11.949219 3.132812 12.960938 C 3.132812 14.128906 3.132812 15.296875 3.132812 16.46875 C 3.132812 19.554688 3.132812 22.640625 3.136719 25.726562 C 3.136719 32.625 3.140625 39.519531 3.144531 46.621094 C 24.125 46.621094 45.101562 46.621094 66.71875 46.621094 C 66.730469 39.6875 66.738281 32.757812 66.753906 25.617188 C 66.757812 23.425781 66.761719 21.234375 66.765625 18.980469 C 66.769531 17.019531 66.769531 17.019531 66.769531 15.058594 C 66.769531 14.183594 66.773438 13.308594 66.777344 12.433594 C 66.78125 11.429688 66.78125 10.421875 66.78125 9.414062 C 66.78125 8.898438 66.78125 8.378906 66.785156 7.863281 C 66.789062 7.3125 66.789062 6.761719 66.785156 6.210938 C 66.789062 6.050781 66.789062 5.886719 66.789062 5.722656 C 66.785156 4.863281 66.753906 4.335938 66.171875 3.691406 C 65.558594 3.152344 65.003906 3.125 64.21875 3.125 C 64.066406 3.125 64.066406 3.125 63.910156 3.125 C 63.5625 3.125 63.21875 3.125 62.871094 3.125 C 62.625 3.125 62.375 3.125 62.121094 3.125 C 61.433594 3.125 60.746094 3.121094 60.058594 3.121094 C 59.316406 3.121094 58.578125 3.121094 57.835938 3.117188 C 56.042969 3.113281 54.253906 3.113281 52.460938 3.109375 C 51.617188 3.109375 50.777344 3.109375 49.9375 3.109375 C 47.132812 3.109375 44.332031 3.105469 41.53125 3.105469 C 40.804688 3.101562 40.078125 3.101562 39.355469 3.101562 C 39.261719 3.101562 39.171875 3.101562 39.082031 3.101562 C 36.242188 3.101562 33.402344 3.101562 30.5625 3.097656 C 27.378906 3.089844 24.191406 3.085938 21.003906 3.085938 C 19.316406 3.085938 17.628906 3.085938 15.9375 3.082031 C 14.503906 3.078125 13.0625 3.078125 11.628906 3.078125 C 10.894531 3.082031 10.160156 3.078125 9.425781 3.074219 C 8.757812 3.074219 8.085938 3.074219 7.414062 3.074219 C 7.171875 3.078125 6.925781 3.074219 6.683594 3.074219 C 6.355469 3.074219 6.023438 3.074219 5.695312 3.074219 C 5.597656 3.074219 5.503906 3.074219 5.40625 3.074219 C 4.558594 3.082031 4.066406 3.425781 3.511719 4.039062 Z M 3.28125 48.808594 C 2.875 53.203125 2.875 53.203125 3.828125 54.6875 C 4.847656 55.46875 6.105469 55.308594 7.332031 55.304688 C 7.578125 55.304688 7.828125 55.304688 8.074219 55.304688 C 8.757812 55.308594 9.4375 55.308594 10.121094 55.304688 C 10.851562 55.304688 11.585938 55.304688 12.324219 55.308594 C 13.765625 55.308594 15.203125 55.308594 16.644531 55.308594 C 17.816406 55.308594 18.984375 55.308594 20.152344 55.308594 C 20.40625 55.308594 20.40625 55.308594 20.660156 55.308594 C 20.996094 55.308594 21.335938 55.308594 21.671875 55.308594 C 24.84375 55.308594 28.015625 55.308594 31.1875 55.304688 C 33.910156 55.304688 36.632812 55.304688 39.355469 55.304688 C 42.511719 55.308594 45.675781 55.308594 48.835938 55.308594 C 49.171875 55.308594 49.507812 55.308594 49.847656 55.308594 C 50.011719 55.308594 50.179688 55.308594 50.347656 55.308594 C 51.519531 55.304688 52.683594 55.308594 53.855469 55.308594 C 55.277344 55.308594 56.703125 55.308594 58.125 55.308594 C 58.855469 55.304688 59.582031 55.304688 60.304688 55.308594 C 60.972656 55.308594 61.640625 55.308594 62.304688 55.304688 C 62.542969 55.304688 62.785156 55.304688 63.023438 55.304688 C 64.683594 55.339844 64.683594 55.339844 66.171875 54.6875 C 67.695312 53.082031 66.855469 51.21875 66.855469 48.808594 C 45.875 48.808594 24.898438 48.808594 3.28125 48.808594 Z M 26.660156 57.421875 C 26.660156 60.53125 26.660156 63.648438 26.660156 66.855469 C 32.121094 66.855469 37.578125 66.855469 43.203125 66.855469 C 43.203125 63.742188 43.203125 60.628906 43.203125 57.421875 C 37.746094 57.421875 32.285156 57.421875 26.660156 57.421875 Z M 26.660156 57.421875 "/>
<path style=" stroke:none;fill-rule:nonzero;fill:rgb(0%,0%,0%);fill-opacity:1;" d="M 51.585938 18.804688 C 51.699219 18.800781 51.820312 18.796875 51.9375 18.789062 C 52.566406 18.777344 52.820312 18.785156 53.300781 19.214844 C 53.628906 19.695312 53.878906 20.21875 54.117188 20.746094 C 54.179688 20.882812 54.179688 20.882812 54.242188 21.023438 C 54.550781 21.699219 54.550781 21.699219 54.550781 22.011719 C 54.734375 22.085938 54.921875 22.15625 55.105469 22.222656 C 55.261719 22.285156 55.261719 22.285156 55.417969 22.347656 C 56.394531 22.550781 57.296875 22.09375 58.1875 21.746094 C 58.660156 21.597656 58.984375 21.539062 59.472656 21.601562 C 60.191406 22.046875 60.976562 22.785156 61.21875 23.601562 C 61.265625 24.308594 60.984375 24.863281 60.71875 25.503906 C 60.363281 26.40625 60.46875 27 60.660156 27.941406 C 60.804688 28.335938 60.804688 28.335938 61.1875 28.425781 C 61.34375 28.476562 61.503906 28.527344 61.660156 28.574219 C 62.046875 28.746094 62.417969 28.933594 62.796875 29.121094 C 62.898438 29.167969 62.992188 29.21875 63.097656 29.269531 C 63.832031 29.632812 63.832031 29.632812 63.984375 29.941406 C 64.03125 30.367188 64.035156 30.789062 64.046875 31.214844 C 64.050781 31.328125 64.054688 31.449219 64.0625 31.570312 C 64.074219 32.195312 64.066406 32.449219 63.636719 32.929688 C 63.15625 33.257812 62.632812 33.507812 62.105469 33.746094 C 61.96875 33.808594 61.96875 33.808594 61.828125 33.871094 C 61.15625 34.179688 61.15625 34.179688 60.839844 34.179688 C 60.246094 35.628906 60.546875 36.539062 61.105469 37.960938 C 61.257812 38.4375 61.332031 38.738281 61.25 39.238281 C 61.011719 39.574219 60.796875 39.828125 60.503906 40.109375 C 60.4375 40.183594 60.367188 40.257812 60.300781 40.335938 C 59.898438 40.742188 59.59375 40.929688 59.015625 40.953125 C 58.238281 40.902344 57.558594 40.609375 56.855469 40.300781 C 56.25 40.070312 55.828125 40.023438 55.203125 40.214844 C 54.375 40.605469 54.128906 41.242188 53.804688 42.058594 C 53.695312 42.320312 53.585938 42.582031 53.472656 42.839844 C 53.425781 42.957031 53.382812 43.074219 53.335938 43.1875 C 53.183594 43.476562 53.183594 43.476562 52.773438 43.75 C 52.371094 43.8125 51.96875 43.800781 51.558594 43.800781 C 51.449219 43.804688 51.339844 43.808594 51.226562 43.8125 C 50.714844 43.8125 50.382812 43.785156 49.921875 43.550781 C 49.585938 43.15625 49.441406 42.800781 49.261719 42.3125 C 48.800781 41.050781 48.800781 41.050781 47.816406 40.1875 C 46.75 39.863281 45.757812 40.382812 44.78125 40.796875 C 44.242188 41.007812 43.898438 41.089844 43.339844 40.878906 C 43.035156 40.65625 42.800781 40.457031 42.535156 40.195312 C 42.46875 40.132812 42.398438 40.074219 42.332031 40.011719 C 41.9375 39.628906 41.789062 39.316406 41.765625 38.785156 C 41.796875 38.222656 41.953125 37.753906 42.164062 37.234375 C 42.644531 36.070312 42.644531 36.070312 42.519531 34.847656 C 41.996094 33.957031 41 33.679688 40.078125 33.339844 C 39.546875 33.121094 39.242188 32.929688 38.964844 32.402344 C 38.890625 32.011719 38.890625 31.636719 38.898438 31.242188 C 38.894531 31.136719 38.890625 31.035156 38.890625 30.933594 C 38.894531 30.445312 38.933594 30.136719 39.164062 29.703125 C 39.65625 29.269531 40.207031 29.070312 40.8125 28.824219 C 41.875 28.378906 41.875 28.378906 42.570312 27.503906 C 42.765625 26.6875 42.511719 25.933594 42.246094 25.15625 C 41.871094 23.949219 41.871094 23.949219 41.972656 23.378906 C 42.257812 22.976562 42.585938 22.632812 42.929688 22.285156 C 43.019531 22.175781 43.105469 22.066406 43.195312 21.949219 C 43.617188 21.636719 44.058594 21.59375 44.570312 21.601562 C 44.980469 21.699219 45.359375 21.851562 45.75 22.011719 C 46.46875 22.304688 46.9375 22.492188 47.714844 22.285156 C 47.964844 22.25 47.964844 22.25 48.21875 22.21875 C 48.671875 22.066406 48.671875 22.066406 48.789062 21.78125 C 48.851562 21.578125 48.90625 21.371094 48.960938 21.164062 C 49.113281 20.6875 49.332031 20.261719 49.566406 19.824219 C 49.648438 19.671875 49.730469 19.519531 49.816406 19.363281 C 50.238281 18.6875 50.855469 18.824219 51.585938 18.804688 Z M 51.269531 20.917969 C 51.214844 21.035156 51.214844 21.035156 51.160156 21.152344 C 50.996094 21.5 50.824219 21.84375 50.65625 22.191406 C 50.601562 22.3125 50.542969 22.433594 50.484375 22.554688 C 49.988281 23.550781 49.988281 23.550781 49.347656 23.78125 C 49.171875 23.832031 48.988281 23.878906 48.808594 23.925781 C 48.582031 24.046875 48.359375 24.171875 48.132812 24.300781 C 47.433594 24.652344 46.960938 24.683594 46.210938 24.472656 C 45.816406 24.339844 45.429688 24.195312 45.046875 24.042969 C 44.679688 23.894531 44.679688 23.894531 44.160156 23.925781 C 44.28125 24.542969 44.410156 25.125 44.664062 25.703125 C 45.078125 26.785156 44.640625 27.734375 44.195312 28.738281 C 44.140625 28.863281 44.082031 28.992188 44.023438 29.121094 C 43.992188 29.238281 43.960938 29.351562 43.933594 29.46875 C 43.644531 30 43.164062 30.191406 42.640625 30.464844 C 42.535156 30.519531 42.429688 30.574219 42.324219 30.632812 C 42.074219 30.769531 41.816406 30.902344 41.5625 31.035156 C 41.664062 31.496094 41.664062 31.496094 42.179688 31.707031 C 42.476562 31.847656 42.78125 31.984375 43.082031 32.121094 C 43.785156 32.457031 44.140625 32.710938 44.449219 33.449219 C 44.492188 33.578125 44.535156 33.707031 44.578125 33.835938 C 44.761719 34.371094 44.761719 34.371094 44.992188 34.882812 C 45.296875 35.507812 45.164062 36.082031 44.960938 36.710938 C 44.835938 37.054688 44.703125 37.386719 44.570312 37.722656 C 44.386719 38.144531 44.386719 38.144531 44.570312 38.554688 C 44.824219 38.464844 44.824219 38.464844 45.078125 38.371094 C 45.300781 38.292969 45.527344 38.210938 45.75 38.136719 C 45.863281 38.097656 45.972656 38.054688 46.085938 38.015625 C 46.734375 37.789062 47.175781 37.671875 47.851562 37.871094 C 47.9375 37.894531 48.023438 37.917969 48.109375 37.941406 C 50.042969 38.515625 50.042969 38.515625 50.464844 39.1875 C 50.554688 39.382812 50.640625 39.582031 50.722656 39.785156 C 50.875 40.082031 51.023438 40.378906 51.175781 40.671875 C 51.300781 40.925781 51.421875 41.171875 51.542969 41.425781 C 51.851562 41.140625 52.027344 40.898438 52.191406 40.511719 C 52.238281 40.417969 52.28125 40.320312 52.324219 40.222656 C 52.410156 40.023438 52.496094 39.824219 52.582031 39.621094 C 52.914062 38.902344 52.914062 38.902344 53.304688 38.679688 C 53.582031 38.582031 53.859375 38.5 54.140625 38.417969 C 54.367188 38.296875 54.59375 38.171875 54.816406 38.042969 C 55.890625 37.5 56.8125 37.867188 57.917969 38.195312 C 58.253906 38.296875 58.253906 38.296875 58.652344 38.28125 C 58.5625 37.765625 58.414062 37.296875 58.234375 36.800781 C 57.757812 35.367188 58.007812 34.582031 58.652344 33.222656 C 58.699219 33.082031 58.75 32.941406 58.804688 32.796875 C 59.1875 32.214844 59.683594 32.058594 60.316406 31.804688 C 60.4375 31.757812 60.550781 31.707031 60.667969 31.65625 C 60.953125 31.539062 61.234375 31.425781 61.523438 31.308594 C 61.433594 30.890625 61.433594 30.890625 61.164062 30.769531 C 61.070312 30.726562 60.976562 30.691406 60.878906 30.652344 C 60.777344 30.609375 60.671875 30.5625 60.570312 30.523438 C 60.355469 30.429688 60.136719 30.34375 59.917969 30.257812 C 59.351562 30.011719 59.113281 29.898438 58.804688 29.335938 C 58.753906 29.175781 58.703125 29.015625 58.652344 28.847656 C 58.53125 28.597656 58.40625 28.351562 58.285156 28.101562 C 57.707031 26.804688 58.042969 25.914062 58.5 24.636719 C 58.664062 24.234375 58.664062 24.234375 58.652344 23.925781 C 58.03125 23.980469 57.515625 24.121094 56.9375 24.34375 C 55.769531 24.78125 55.769531 24.78125 55.128906 24.507812 C 54.941406 24.410156 54.757812 24.316406 54.578125 24.210938 C 54.285156 24.046875 54.285156 24.046875 53.953125 23.996094 C 53.398438 23.867188 53.050781 23.714844 52.714844 23.234375 C 52.273438 22.492188 51.902344 21.707031 51.542969 20.917969 C 51.453125 20.917969 51.363281 20.917969 51.269531 20.917969 Z M 51.269531 20.917969 "/>
<path style=" stroke:none;fill-rule:nonzero;fill:rgb(0%,0%,0%);fill-opacity:1;" d="M 43.90625 8.710938 C 44.054688 8.710938 44.199219 8.710938 44.347656 8.710938 C 44.507812 8.710938 44.667969 8.710938 44.832031 8.710938 C 45 8.707031 45.167969 8.707031 45.34375 8.703125 C 45.804688 8.703125 46.265625 8.703125 46.726562 8.703125 C 47.019531 8.699219 47.304688 8.699219 47.59375 8.699219 C 48.601562 8.695312 49.609375 8.691406 50.617188 8.691406 C 51.554688 8.691406 52.492188 8.6875 53.429688 8.679688 C 54.234375 8.675781 55.042969 8.675781 55.847656 8.675781 C 56.328125 8.675781 56.808594 8.675781 57.292969 8.671875 C 57.824219 8.664062 58.367188 8.664062 58.902344 8.667969 C 59.058594 8.664062 59.21875 8.664062 59.382812 8.660156 C 60.453125 8.671875 60.453125 8.671875 61.007812 9.058594 C 61.246094 9.425781 61.335938 9.597656 61.339844 10.027344 C 61.339844 10.140625 61.339844 10.257812 61.339844 10.371094 C 61.339844 10.492188 61.339844 10.613281 61.335938 10.738281 C 61.339844 10.863281 61.339844 10.984375 61.339844 11.113281 C 61.339844 11.382812 61.335938 11.644531 61.332031 11.90625 C 61.324219 12.3125 61.328125 12.714844 61.332031 13.117188 C 61.328125 13.378906 61.328125 13.632812 61.324219 13.890625 C 61.328125 14.011719 61.328125 14.128906 61.328125 14.257812 C 61.3125 15.089844 61.3125 15.089844 60.988281 15.523438 C 60.679688 15.738281 60.527344 15.796875 60.15625 15.792969 C 60.066406 15.792969 59.976562 15.792969 59.882812 15.796875 C 59.609375 15.722656 59.609375 15.722656 59.0625 15.175781 C 59.0625 13.773438 59.0625 12.378906 59.0625 10.9375 C 54.371094 10.9375 49.675781 10.9375 44.84375 10.9375 C 44.84375 12.289062 44.84375 13.644531 44.84375 15.039062 C 44.160156 15.722656 44.160156 15.722656 43.675781 15.792969 C 43.1875 15.71875 42.992188 15.660156 42.65625 15.3125 C 42.476562 14.78125 42.5 14.269531 42.5 13.714844 C 42.496094 13.597656 42.496094 13.484375 42.496094 13.363281 C 42.496094 13.117188 42.496094 12.871094 42.496094 12.625 C 42.496094 12.246094 42.492188 11.871094 42.488281 11.492188 C 42.488281 11.253906 42.488281 11.011719 42.484375 10.777344 C 42.484375 10.664062 42.484375 10.550781 42.484375 10.433594 C 42.488281 9.429688 42.488281 9.429688 42.792969 9.023438 C 43.242188 8.722656 43.382812 8.714844 43.90625 8.710938 Z M 43.90625 8.710938 "/>
<path style=" stroke:none;fill-rule:nonzero;fill:rgb(0%,0%,0%);fill-opacity:1;" d="M 30.910156 10.792969 C 31.050781 10.871094 31.191406 10.953125 31.34375 11.03125 C 31.667969 11.203125 31.988281 11.378906 32.3125 11.550781 C 32.402344 11.597656 32.492188 11.640625 32.582031 11.691406 C 33.402344 12.125 34.230469 12.535156 35.0625 12.945312 C 35.199219 13.011719 35.335938 13.078125 35.472656 13.144531 C 36.023438 13.417969 36.570312 13.6875 37.117188 13.960938 C 37.507812 14.148438 37.898438 14.339844 38.289062 14.53125 C 38.40625 14.589844 38.519531 14.644531 38.644531 14.703125 C 38.753906 14.757812 38.863281 14.8125 38.972656 14.867188 C 39.066406 14.914062 39.164062 14.960938 39.257812 15.007812 C 39.5625 15.210938 39.730469 15.410156 39.921875 15.722656 C 39.992188 16.257812 39.996094 16.558594 39.707031 17.019531 C 39.3125 17.425781 38.898438 17.660156 38.398438 17.90625 C 38.300781 17.957031 38.203125 18.007812 38.101562 18.058594 C 37.78125 18.222656 37.457031 18.382812 37.140625 18.542969 C 36.914062 18.65625 36.6875 18.765625 36.464844 18.882812 C 35.996094 19.117188 35.527344 19.351562 35.058594 19.585938 C 34.453125 19.886719 33.855469 20.1875 33.257812 20.488281 C 32.792969 20.722656 32.328125 20.953125 31.867188 21.183594 C 31.644531 21.292969 31.425781 21.40625 31.203125 21.519531 C 30.890625 21.675781 30.582031 21.832031 30.273438 21.984375 C 30.179688 22.03125 30.089844 22.078125 29.996094 22.128906 C 29.421875 22.402344 29.054688 22.46875 28.4375 22.285156 C 28.042969 21.972656 27.90625 21.714844 27.828125 21.214844 C 27.898438 20.714844 28.035156 20.597656 28.425781 20.289062 C 29.050781 19.871094 29.734375 19.554688 30.40625 19.222656 C 30.570312 19.140625 30.734375 19.058594 30.898438 18.980469 C 31.328125 18.765625 31.761719 18.554688 32.191406 18.339844 C 32.628906 18.121094 33.070312 17.902344 33.511719 17.683594 C 34.371094 17.257812 35.234375 16.832031 36.09375 16.40625 C 35.699219 16.089844 35.296875 15.855469 34.84375 15.632812 C 34.699219 15.566406 34.558594 15.496094 34.414062 15.425781 C 34.265625 15.351562 34.113281 15.277344 33.957031 15.203125 C 33.640625 15.046875 33.320312 14.890625 32.996094 14.730469 C 32.496094 14.480469 31.988281 14.234375 31.484375 13.988281 C 31 13.75 30.511719 13.511719 30.027344 13.273438 C 29.875 13.199219 29.726562 13.125 29.570312 13.050781 C 29.429688 12.980469 29.289062 12.914062 29.140625 12.835938 C 29.019531 12.777344 28.894531 12.71875 28.769531 12.652344 C 28.378906 12.40625 28.152344 12.136719 27.890625 11.757812 C 27.824219 11.324219 27.890625 10.945312 28.027344 10.527344 C 28.859375 9.667969 30.035156 10.328125 30.910156 10.792969 Z M 30.910156 10.792969 "/>
<path style=" stroke:none;fill-rule:nonzero;fill:rgb(0%,0%,0%);fill-opacity:1;" d="M 17.636719 10.390625 C 18.023438 10.628906 18.054688 10.820312 18.183594 11.261719 C 18.183594 11.757812 18.183594 11.757812 17.890625 12.101562 C 17.503906 12.4375 17.148438 12.664062 16.691406 12.894531 C 16.53125 12.972656 16.371094 13.054688 16.207031 13.140625 C 16.039062 13.226562 15.867188 13.3125 15.699219 13.398438 C 15.519531 13.488281 15.347656 13.578125 15.167969 13.664062 C 14.625 13.945312 14.078125 14.21875 13.535156 14.492188 C 13.359375 14.582031 13.179688 14.667969 13 14.757812 C 11.996094 15.265625 10.988281 15.769531 9.980469 16.269531 C 10.371094 16.578125 10.757812 16.808594 11.207031 17.027344 C 11.339844 17.097656 11.472656 17.160156 11.609375 17.230469 C 11.75 17.300781 11.894531 17.371094 12.039062 17.4375 C 13.414062 18.121094 14.78125 18.820312 16.132812 19.542969 C 16.386719 19.675781 16.640625 19.808594 16.890625 19.941406 C 17.027344 20.011719 17.164062 20.085938 17.300781 20.160156 C 17.472656 20.246094 17.472656 20.246094 17.644531 20.335938 C 17.910156 20.507812 17.910156 20.507812 18.183594 20.917969 C 18.242188 21.449219 18.257812 21.753906 17.972656 22.210938 C 17.511719 22.503906 17.21875 22.464844 16.679688 22.421875 C 16.328125 22.289062 16.011719 22.152344 15.679688 21.980469 C 15.539062 21.910156 15.539062 21.910156 15.386719 21.839844 C 15.078125 21.683594 14.769531 21.527344 14.457031 21.371094 C 14.238281 21.261719 14.019531 21.152344 13.800781 21.042969 C 13.351562 20.816406 12.890625 20.585938 12.4375 20.355469 C 11.859375 20.0625 11.277344 19.773438 10.695312 19.480469 C 10.242188 19.257812 9.796875 19.03125 9.34375 18.804688 C 9.132812 18.695312 8.917969 18.589844 8.703125 18.484375 C 8.402344 18.335938 8.101562 18.179688 7.800781 18.03125 C 7.671875 17.964844 7.671875 17.964844 7.535156 17.898438 C 6.980469 17.613281 6.554688 17.292969 6.152344 16.816406 C 6.058594 16.339844 6.058594 16.339844 6.152344 15.859375 C 6.765625 15.257812 7.453125 14.902344 8.21875 14.527344 C 8.335938 14.472656 8.457031 14.410156 8.578125 14.347656 C 8.964844 14.15625 9.347656 13.96875 9.730469 13.785156 C 10.234375 13.539062 10.734375 13.289062 11.230469 13.042969 C 11.355469 12.980469 11.476562 12.921875 11.609375 12.859375 C 12.667969 12.332031 13.71875 11.78125 14.765625 11.226562 C 16.898438 10.097656 16.898438 10.097656 17.636719 10.390625 Z M 17.636719 10.390625 "/>
<path style=" stroke:none;fill-rule:nonzero;fill:rgb(0%,0%,0%);fill-opacity:1;" d="M 8.660156 39.734375 C 8.84375 39.730469 9.023438 39.730469 9.207031 39.726562 C 9.40625 39.726562 9.605469 39.730469 9.800781 39.730469 C 10.011719 39.730469 10.21875 39.726562 10.429688 39.726562 C 11 39.722656 11.5625 39.722656 12.132812 39.722656 C 12.605469 39.722656 13.082031 39.722656 13.554688 39.722656 C 14.671875 39.722656 15.792969 39.722656 16.910156 39.722656 C 18.0625 39.722656 19.214844 39.722656 20.371094 39.71875 C 21.363281 39.71875 22.351562 39.71875 23.339844 39.71875 C 23.933594 39.71875 24.523438 39.71875 25.117188 39.714844 C 25.671875 39.710938 26.230469 39.714844 26.785156 39.71875 C 26.988281 39.71875 27.195312 39.71875 27.394531 39.714844 C 27.675781 39.710938 27.953125 39.714844 28.234375 39.71875 C 28.46875 39.71875 28.46875 39.71875 28.703125 39.71875 C 29.214844 39.800781 29.441406 39.972656 29.804688 40.332031 C 29.886719 40.640625 29.886719 40.640625 29.875 40.953125 C 29.871094 41.058594 29.871094 41.164062 29.867188 41.273438 C 29.789062 41.628906 29.679688 41.75 29.394531 41.972656 C 28.945312 42.125 28.613281 42.128906 28.140625 42.128906 C 27.875 42.128906 27.875 42.128906 27.605469 42.128906 C 27.410156 42.128906 27.214844 42.128906 27.015625 42.128906 C 26.8125 42.128906 26.601562 42.132812 26.398438 42.132812 C 25.835938 42.132812 25.273438 42.136719 24.710938 42.136719 C 24.363281 42.136719 24.015625 42.136719 23.664062 42.140625 C 22.566406 42.140625 21.472656 42.144531 20.375 42.144531 C 19.105469 42.144531 17.84375 42.144531 16.578125 42.148438 C 15.597656 42.152344 14.621094 42.152344 13.640625 42.152344 C 13.054688 42.152344 12.476562 42.152344 11.886719 42.15625 C 11.339844 42.15625 10.789062 42.15625 10.238281 42.15625 C 10.039062 42.15625 9.835938 42.15625 9.636719 42.160156 C 9.359375 42.160156 9.085938 42.160156 8.808594 42.15625 C 8.65625 42.15625 8.5 42.160156 8.34375 42.160156 C 7.875 42.101562 7.621094 41.980469 7.246094 41.699219 C 7.019531 41.25 6.941406 41.003906 7.058594 40.511719 C 7.464844 39.828125 7.890625 39.734375 8.660156 39.734375 Z M 8.660156 39.734375 "/>
<path style=" stroke:none;fill-rule:nonzero;fill:rgb(0%,0%,0%);fill-opacity:1;" d="M 54.636719 27.566406 C 55.582031 28.421875 56.105469 29.550781 56.222656 30.808594 C 56.273438 32.199219 55.855469 33.394531 54.960938 34.453125 C 54.011719 35.421875 52.847656 35.894531 51.5 35.988281 C 50.164062 35.945312 48.988281 35.457031 47.996094 34.554688 C 46.960938 33.421875 46.691406 32.121094 46.722656 30.636719 C 46.777344 29.378906 47.347656 28.539062 48.203125 27.644531 C 50.058594 25.957031 52.699219 26.074219 54.636719 27.566406 Z M 49.59375 29.582031 C 49.097656 30.207031 48.914062 30.632812 48.960938 31.4375 C 49.042969 32.066406 49.203125 32.464844 49.628906 32.949219 C 50.332031 33.484375 50.886719 33.691406 51.757812 33.679688 C 52.5 33.570312 53.023438 33.125 53.519531 32.589844 C 53.949219 31.929688 53.964844 31.253906 53.867188 30.488281 C 53.558594 29.714844 53.09375 29.242188 52.363281 28.847656 C 51.253906 28.476562 50.371094 28.722656 49.59375 29.582031 Z M 49.59375 29.582031 "/>
<path style=" stroke:none;fill-rule:nonzero;fill:rgb(0%,0%,0%);fill-opacity:1;" d="M 27.070312 6.152344 C 27.457031 6.414062 27.585938 6.601562 27.730469 7.046875 C 27.765625 7.722656 27.539062 8.238281 27.289062 8.859375 C 27.214844 9.058594 27.214844 9.058594 27.136719 9.261719 C 26.96875 9.699219 26.796875 10.132812 26.625 10.570312 C 26.507812 10.875 26.390625 11.183594 26.269531 11.492188 C 25.964844 12.289062 25.652344 13.085938 25.339844 13.882812 C 25.050781 14.628906 24.761719 15.378906 24.472656 16.125 C 24.09375 17.105469 23.714844 18.089844 23.332031 19.074219 C 22.925781 20.109375 22.523438 21.144531 22.128906 22.1875 C 21.957031 22.652344 21.78125 23.113281 21.605469 23.578125 C 21.527344 23.789062 21.445312 24 21.367188 24.214844 C 21.257812 24.507812 21.148438 24.792969 21.039062 25.082031 C 20.980469 25.246094 20.917969 25.402344 20.855469 25.570312 C 20.617188 26.027344 20.390625 26.242188 19.960938 26.523438 C 19.441406 26.613281 19.210938 26.5625 18.746094 26.3125 C 18.429688 25.945312 18.398438 25.785156 18.414062 25.3125 C 18.503906 24.6875 18.757812 24.113281 18.992188 23.53125 C 19.042969 23.386719 19.101562 23.238281 19.160156 23.089844 C 19.347656 22.605469 19.535156 22.125 19.722656 21.644531 C 19.851562 21.308594 19.980469 20.96875 20.109375 20.632812 C 20.382812 19.9375 20.652344 19.238281 20.925781 18.542969 C 21.308594 17.546875 21.691406 16.550781 22.074219 15.554688 C 22.585938 14.21875 23.097656 12.886719 23.617188 11.546875 C 23.890625 10.835938 24.164062 10.121094 24.4375 9.40625 C 24.542969 9.125 24.652344 8.839844 24.761719 8.558594 C 24.882812 8.238281 25.003906 7.917969 25.121094 7.59375 C 25.175781 7.460938 25.226562 7.328125 25.28125 7.1875 C 25.324219 7.074219 25.367188 6.964844 25.410156 6.847656 C 25.796875 6.144531 26.308594 6.054688 27.070312 6.152344 Z M 27.070312 6.152344 "/>
<path style=" stroke:none;fill-rule:nonzero;fill:rgb(0%,0%,0%);fill-opacity:1;" d="M 9.277344 33.035156 C 9.414062 33.035156 9.550781 33.035156 9.6875 33.035156 C 10.136719 33.03125 10.582031 33.035156 11.027344 33.039062 C 11.339844 33.039062 11.648438 33.039062 11.960938 33.039062 C 12.609375 33.039062 13.257812 33.039062 13.910156 33.039062 C 14.746094 33.042969 15.578125 33.042969 16.414062 33.042969 C 17.050781 33.042969 17.691406 33.042969 18.335938 33.046875 C 18.640625 33.046875 18.949219 33.046875 19.257812 33.046875 C 19.683594 33.046875 20.113281 33.046875 20.542969 33.046875 C 20.671875 33.046875 20.796875 33.046875 20.929688 33.046875 C 21.046875 33.046875 21.164062 33.050781 21.285156 33.050781 C 21.4375 33.050781 21.4375 33.050781 21.589844 33.050781 C 21.921875 33.09375 22.140625 33.1875 22.421875 33.359375 C 22.703125 33.722656 22.695312 33.921875 22.6875 34.386719 C 22.527344 34.980469 22.402344 35.097656 21.875 35.410156 C 21.421875 35.488281 20.976562 35.484375 20.515625 35.480469 C 20.378906 35.480469 20.242188 35.484375 20.105469 35.484375 C 19.652344 35.484375 19.203125 35.484375 18.75 35.484375 C 18.4375 35.484375 18.125 35.484375 17.8125 35.484375 C 17.15625 35.484375 16.5 35.484375 15.847656 35.480469 C 15.003906 35.476562 14.164062 35.480469 13.324219 35.484375 C 12.675781 35.484375 12.027344 35.484375 11.382812 35.484375 C 11.070312 35.484375 10.761719 35.484375 10.453125 35.484375 C 10.019531 35.484375 9.585938 35.484375 9.152344 35.480469 C 9.023438 35.480469 8.894531 35.484375 8.765625 35.484375 C 8.1875 35.476562 7.875 35.457031 7.375 35.152344 C 7.0625 34.8125 6.984375 34.636719 6.972656 34.179688 C 7.074219 33.753906 7.175781 33.554688 7.511719 33.273438 C 8.109375 33.007812 8.636719 33.027344 9.277344 33.035156 Z M 9.277344 33.035156 "/>
</g>
</svg>
